<?xml version="1.0" encoding="UTF-8"?>
<svg xmlns="http://www.w3.org/2000/svg" xmlns:xlink="http://www.w3.org/1999/xlink" viewBox="0 0 16 16" width="16px" height="16px">
<g id="surface53571438">
<path style=" stroke:none;fill-rule:nonzero;fill:rgb(24.313726%,58.039218%,74.901962%);fill-opacity:1;" d="M 11 15 L 5 15 C 2.789062 15 1 13.210938 1 11 L 1 5 C 1 2.789062 2.789062 1 5 1 L 11 1 C 13.210938 1 15 2.789062 15 5 L 15 11 C 15 13.210938 13.210938 15 11 15 Z M 11 15 "/>
<path style=" stroke:none;fill-rule:nonzero;fill:rgb(100%,100%,100%);fill-opacity:1;" d="M 11 2 L 5 2 C 3.34375 2 2 3.34375 2 5 L 2 11 C 2 12.65625 3.34375 14 5 14 L 11 14 C 12.65625 14 14 12.65625 14 11 L 14 5 C 14 3.34375 12.65625 2 11 2 Z M 13 11 C 13 12.105469 12.105469 13 11 13 L 5 13 C 3.894531 13 3 12.105469 3 11 L 3 5 C 3 3.894531 3.894531 3 5 3 L 11 3 C 12.105469 3 13 3.894531 13 5 Z M 13 11 "/>
<path style=" stroke:none;fill-rule:nonzero;fill:rgb(100%,100%,100%);fill-opacity:1;" d="M 8 5 C 6.34375 5 5 6.34375 5 8 C 5 9.65625 6.34375 11 8 11 C 9.65625 11 11 9.65625 11 8 C 11 6.34375 9.65625 5 8 5 Z M 8 10 C 6.894531 10 6 9.105469 6 8 C 6 6.894531 6.894531 6 8 6 C 9.105469 6 10 6.894531 10 8 C 10 9.105469 9.105469 10 8 10 Z M 8 10 "/>
<path style=" stroke:none;fill-rule:nonzero;fill:rgb(100%,100%,100%);fill-opacity:1;" d="M 12 4.5 C 12 4.777344 11.777344 5 11.5 5 C 11.222656 5 11 4.777344 11 4.5 C 11 4.222656 11.222656 4 11.5 4 C 11.777344 4 12 4.222656 12 4.5 Z M 12 4.5 "/>
</g>
</svg>
